# xmcd
#
# Track frame offsets:
#	150
#	10656
#	26118
#	40705
#	54264
#	74084
#	88178
#	106532
#	124288
#	140427
#	158075
#	176350
#
# Disc length: 2532 seconds
#
# Revision: 1
# Processed by: cddbd v1.5.2PL0 Copyright (c) Steve Scherf et al.
# Submitted via: EasyCDDAExtractor 11.0.2.1
#
DISCID=9609e20c
DTITLE=Various Artist - Short Stories from East Yorkshire
DYEAR=2008
DGENRE=Pop-Folk
TTITLE0=Homespun - Short Story
TTITLE1=Homespun - My Sorrows Learned to Swim
TTITLE2=Homespun - Happiness Passes
TTITLE3=Homespun featuring Mary Coughlan - The Driver
TTITLE4=Homespun - First People on Earth
TTITLE5=Homespun - Memo to Self
TTITLE6=Homespun - The Magician's Daughter
TTITLE7=Homespun - A Yorkshire Ghost
TTITLE8=Homespun - Watching
TTITLE9=Homespun featuring Eleanor McEvoy - Lover's Chapel
TTITLE10=Homespun - The Screen Goes Black
TTITLE11=Homespun - Rendezvous Roulade
EXTD=YEAR: 2008
EXTT0=
EXTT1=
EXTT2=
EXTT3=
EXTT4=
EXTT5=
EXTT6=
EXTT7=
EXTT8=
EXTT9=
EXTT10=
EXTT11=
PLAYORDER=
